<svg width="564" height="267" viewBox="0 0 564 267" fill="none" xmlns="http://www.w3.org/2000/svg">
<path d="M64.3 158C56.7667 158 51.1667 156.4 47.5 153.2C43.9 150 42.1 145.567 42.1 139.9C42.1 136.233 43.1667 132.133 45.3 127.6C47.4333 123 50.9333 118.1 55.8 112.9C58.4667 110.1 61.7333 107.367 65.6 104.7C69.4667 101.967 73.6667 99.4333 78.2 97.1C82.8 94.7667 87.4667 92.8 92.2 91.2C89.0667 90.6 85.7667 90.1667 82.3 89.9C78.9 89.6333 75.4667 89.5 72 89.5C66.0667 89.5 59.9667 90 53.7 91C47.4333 91.9333 41.3667 93.3667 35.5 95.3C29.7 97.1667 24.4667 99.5333 19.8 102.4C15.2 105.2 11.5333 108.467 8.8 112.2C6.06667 115.933 4.7 120.133 4.7 124.8C4.7 127.267 5.3 129.667 6.5 132C7.7 134.333 10.1333 136.067 13.8 137.2C15.1333 137.6 16.8 138 18.8 138.4C20.8 138.8 22.3333 138.967 23.4 138.9H23.8C24.8 138.9 25.3 139.033 25.3 139.3C25.3 139.5 24.9 139.7 24.1 139.9C23.6333 139.967 23.1333 140.033 22.6 140.1C22.1333 140.1 21.6333 140.1 21.1 140.1C19.0333 140.1 16.8667 139.833 14.6 139.3C10.1333 138.033 6.63333 136.067 4.1 133.4C1.63333 130.667 0.4 127.767 0.4 124.7C0.4 120.233 1.76667 116.1 4.5 112.3C7.3 108.5 11.0667 105.067 15.8 102C20.6 98.8667 26.0667 96.2333 32.2 94.1C38.4 91.9 44.9 90.2333 51.7 89.1C58.5667 87.9 65.4 87.3 72.2 87.3C75.6 87.3 79.5 87.4667 83.9 87.8C88.3 88.1333 92.7 88.7667 97.1 89.7C99.9667 88.9667 102.767 88.3667 105.5 87.9C108.3 87.4333 111 87.2 113.6 87.2C114.2 87.2 114.767 87.2 115.3 87.2C115.9 87.2 116.467 87.2333 117 87.3C119.133 87.4333 120.9 88.1667 122.3 89.5C123.767 90.8333 124.5 92.5333 124.5 94.6C124.5 95.6667 124.167 97.1 123.5 98.9C122.833 100.7 121.8 102.633 120.4 104.7C121.333 106.9 121.8 109.267 121.8 111.8C121.8 116 120.9 120.067 119.1 124C117.3 127.933 114.833 131.633 111.7 135.1C108.633 138.5 105.133 141.6 101.2 144.4C97.2667 147.2 93.1333 149.633 88.8 151.7C84.5333 153.7 80.3 155.233 76.1 156.3C71.9 157.433 67.9667 158 64.3 158ZM119.1 102.1C120.033 100.033 120.5 98.2333 120.5 96.7C120.5 94.7 119.867 93.1667 118.6 92.1C117.333 90.9667 115.833 90.3667 114.1 90.3C112.433 90.1667 110.667 90.2 108.8 90.4C107 90.6 105.133 90.9 103.2 91.3C106.6 92.3667 109.667 93.8 112.4 95.6C115.2 97.4 117.433 99.5667 119.1 102.1ZM60.8 154.8C65.3333 154.8 69.8667 154.133 74.4 152.8C78.9333 151.4 83.3333 149.533 87.6 147.2C91.8667 144.867 95.8333 142.3 99.5 139.5C102.633 137.033 105.567 134.367 108.3 131.5C111.1 128.633 113.367 125.6 115.1 122.4C116.833 119.133 117.7 115.767 117.7 112.3C117.7 111.633 117.667 111 117.6 110.4C117.533 109.8 117.433 109.233 117.3 108.7C116.233 109.9 115 111.1 113.6 112.3C112.2 113.433 110.667 114.533 109 115.6C108.733 115.733 108.467 115.9 108.2 116.1C107.933 116.3 107.733 116.4 107.6 116.4C107.467 116.4 107.4 116.3 107.4 116.1C107.4 116.1 107.467 115.833 107.6 115.3C108 114.833 108.633 114.2 109.5 113.4C110.433 112.6 111.4 111.767 112.4 110.9C113.467 109.967 114.333 109.1 115 108.3L116.6 106.3C115.333 102.9 113.067 100.1 109.8 97.9C106.533 95.6333 102.667 93.8667 98.2 92.6C87.7333 95.7333 78.2 100.467 69.6 106.8C61.0667 113.067 54.1333 121.367 48.8 131.7C47.9333 133.5 47.1667 135.467 46.5 137.6C45.8333 139.667 45.5 141.667 45.5 143.6C45.5 146.067 46.1333 148.267 47.4 150.2C48.6667 152.133 50.9 153.433 54.1 154.1C55.2333 154.3 56.3333 154.467 57.4 154.6C58.4667 154.733 59.6 154.8 60.8 154.8ZM159.723 154.1C156.657 154.1 154.557 153.433 153.423 152.1C152.29 150.7 151.723 149.033 151.723 147.1C151.723 145.7 151.957 144.233 152.423 142.7C152.89 141.167 153.39 139.733 153.923 138.4C152.99 139.4 151.723 140.733 150.123 142.4C148.523 144.067 146.757 145.767 144.823 147.5C142.89 149.167 140.89 150.6 138.823 151.8C136.823 152.933 134.957 153.5 133.223 153.5C132.357 153.5 131.523 153.3 130.723 152.9C129.923 152.5 129.223 151.867 128.623 151C127.89 150 127.523 148.833 127.523 147.5C127.523 146.033 127.923 144.567 128.723 143.1C129.59 141.633 130.557 140.233 131.623 138.9C132.757 137.5 133.723 136.2 134.523 135C135.99 132.867 137.29 130.7 138.423 128.5C139.623 126.3 140.223 124.467 140.223 123C140.223 122 139.923 121.267 139.323 120.8C138.657 120.267 138.323 119.7 138.323 119.1C138.323 118.833 138.457 118.7 138.723 118.7C139.057 118.7 139.457 118.867 139.923 119.2C140.39 119.467 140.89 119.833 141.423 120.3C141.957 120.767 142.457 121.3 142.923 121.9C143.323 122.367 143.723 122.9 144.123 123.5C144.523 124.1 144.723 124.8 144.723 125.6C144.723 126.6 144.357 127.7 143.623 128.9C142.89 130.167 141.957 131.567 140.823 133.1C139.757 134.633 138.623 136.167 137.423 137.7C136.89 138.433 136.057 139.6 134.923 141.2C133.79 142.8 132.757 144.467 131.823 146.2C130.89 147.867 130.423 149.267 130.423 150.4C130.423 151.6 131.057 152.2 132.323 152.2C133.39 152.2 134.623 151.8 136.023 151C137.49 150.2 138.857 149.3 140.123 148.3C141.457 147.3 142.423 146.533 143.023 146C145.157 144.2 147.39 142.3 149.723 140.3C152.057 138.233 154.29 136.267 156.423 134.4C156.757 134.2 157.123 134.1 157.523 134.1C158.323 134.1 158.957 134.333 159.423 134.8C159.623 135 159.723 135.267 159.723 135.6C159.723 136.4 159.357 137.5 158.623 138.9C157.89 140.3 157.123 141.8 156.323 143.4C155.59 145 155.123 146.5 154.923 147.9C154.857 148.167 154.823 148.4 154.823 148.6C154.823 148.8 154.823 149 154.823 149.2C154.823 150.467 155.157 151.333 155.823 151.8C156.557 152.267 157.457 152.5 158.523 152.5C159.857 152.5 161.223 152.3 162.623 151.9C164.09 151.433 165.257 151.033 166.123 150.7C169.657 149.367 173.19 147.533 176.723 145.2C180.257 142.867 183.457 140.5 186.323 138.1C187.057 137.5 187.723 136.967 188.323 136.5C188.99 135.967 189.657 135.367 190.323 134.7C190.79 134.233 191.09 134 191.223 134C191.29 134 191.323 134.067 191.323 134.2C191.323 134.333 191.223 134.567 191.023 134.9C190.89 135.233 190.757 135.533 190.623 135.8C190.023 136.8 188.89 138.067 187.223 139.6C185.623 141.133 183.69 142.733 181.423 144.4C179.223 146.067 176.823 147.633 174.223 149.1C171.69 150.567 169.157 151.767 166.623 152.7C164.157 153.633 161.857 154.1 159.723 154.1ZM197.792 170.5C194.792 170.5 192.626 169.767 191.292 168.3C190.026 166.833 189.392 164.967 189.392 162.7C189.392 160.033 190.092 156.967 191.492 153.5C192.959 150.033 194.859 146.533 197.192 143C199.526 139.4 202.026 136.133 204.692 133.2C203.492 133.533 202.359 133.7 201.292 133.7C198.826 133.7 196.859 133.067 195.392 131.8L194.692 132.8C194.226 133.467 193.392 134.4 192.192 135.6C191.059 136.8 189.926 137.867 188.792 138.8C185.926 141.2 182.892 143.467 179.692 145.6C176.559 147.733 173.459 149.5 170.392 150.9C167.326 152.3 164.459 153.1 161.792 153.3C161.526 153.3 161.226 153.233 160.892 153.1C160.559 153.033 160.392 152.933 160.392 152.8C160.392 152.6 160.992 152.367 162.192 152.1C164.526 151.633 167.092 150.667 169.892 149.2C172.759 147.667 175.692 145.867 178.692 143.8C181.759 141.667 184.692 139.467 187.492 137.2C188.626 136.267 189.826 135.2 191.092 134C192.426 132.8 193.592 131.733 194.592 130.8C193.859 129.8 193.492 128.6 193.492 127.2C193.492 125.667 193.892 124.133 194.692 122.6C195.559 121 196.659 119.533 197.992 118.2C199.326 116.867 200.726 115.8 202.192 115C203.726 114.133 205.126 113.7 206.392 113.7C207.459 113.7 207.992 114.133 207.992 115C207.992 115.6 207.726 116.1 207.192 116.5C206.726 116.9 205.926 117.667 204.792 118.8C203.726 119.867 202.559 121.1 201.292 122.5C200.026 123.9 198.892 125.267 197.892 126.6C196.892 127.867 196.259 128.9 195.992 129.7C196.259 130.167 196.626 130.6 197.092 131C197.559 131.333 198.459 131.5 199.792 131.5C201.526 131.5 203.159 131.167 204.692 130.5C206.292 129.767 207.792 128.933 209.192 128C209.592 127.867 209.959 127.8 210.292 127.8C211.759 127.8 212.826 128.2 213.492 129C213.759 129.4 213.426 130.133 212.492 131.2C211.559 132.267 210.626 133.3 209.692 134.3C207.759 136.367 205.792 138.733 203.792 141.4C201.792 144 199.959 146.667 198.292 149.4C196.626 152.133 195.292 154.733 194.292 157.2C193.292 159.667 192.792 161.8 192.792 163.6C192.792 165.067 193.192 166.233 193.992 167.1C194.792 167.967 196.126 168.4 197.992 168.4C198.792 168.4 199.692 168.3 200.692 168.1C202.426 167.833 204.392 167.2 206.592 166.2C208.792 165.267 210.992 164.167 213.192 162.9C215.392 161.7 217.259 160.567 218.792 159.5C218.926 159.433 219.059 159.4 219.192 159.4C219.392 159.4 219.492 159.533 219.492 159.8C219.492 160.067 219.359 160.267 219.092 160.4C218.626 160.8 217.559 161.7 215.892 163.1C214.292 164.5 212.259 165.9 209.792 167.3C207.392 168.7 204.692 169.633 201.692 170.1C201.026 170.167 200.359 170.233 199.692 170.3C199.026 170.433 198.392 170.5 197.792 170.5ZM272.188 165.6C270.455 165.6 268.988 165 267.788 163.8C266.588 162.667 265.622 161.133 264.888 159.2C264.155 157.267 263.622 155.167 263.288 152.9C262.955 150.633 262.788 148.4 262.788 146.2C262.788 144.333 262.888 142.633 263.088 141.1C263.288 139.5 263.588 138.267 263.988 137.4L263.588 136.6C263.055 135.667 262.655 134.867 262.388 134.2C262.188 133.467 262.088 132.867 262.088 132.4C262.088 131.6 262.322 131.2 262.788 131.2C263.188 131.2 263.588 131.467 263.988 132C267.855 136.733 271.988 141 276.388 144.8C280.788 148.6 285.322 151.433 289.988 153.3C292.788 150.767 295.355 148 297.688 145C300.022 141.933 302.122 138.9 303.988 135.9C305.855 132.9 307.488 130.167 308.888 127.7C310.288 125.167 311.488 123.1 312.488 121.5C312.755 120.767 313.022 120.033 313.288 119.3C313.555 118.567 313.822 117.9 314.088 117.3C311.622 119.5 308.822 121.767 305.688 124.1C302.622 126.433 299.422 128.6 296.088 130.6C292.822 132.6 289.555 134.267 286.288 135.6C283.022 136.867 279.988 137.533 277.188 137.6C275.322 137.533 273.988 136.967 273.188 135.9C272.388 134.767 272.088 133.567 272.288 132.3C272.822 129.567 273.955 126.933 275.688 124.4C277.422 121.8 279.622 119.467 282.288 117.4C282.488 117.267 282.788 117.2 283.188 117.2C283.588 117.2 283.922 117.267 284.188 117.4C284.455 117.533 284.488 117.667 284.288 117.8C282.288 119.333 280.355 121 278.488 122.8C276.688 124.6 275.622 126.8 275.288 129.4C275.155 130.867 275.455 132.033 276.188 132.9C276.922 133.767 278.255 134.2 280.188 134.2C283.188 134.2 286.288 133.567 289.488 132.3C292.688 130.967 295.855 129.267 298.988 127.2C302.188 125.067 305.288 122.7 308.288 120.1C311.288 117.5 314.122 114.9 316.788 112.3C318.322 110.1 319.788 108.6 321.188 107.8C322.588 107 323.722 106.6 324.588 106.6H324.988C325.922 106.6 326.555 106.767 326.888 107.1C327.288 107.367 327.488 107.7 327.488 108.1C327.488 108.833 327.188 109.567 326.588 110.3C324.388 113.233 321.922 116.567 319.188 120.3C316.455 124.033 313.555 127.9 310.488 131.9C307.488 135.9 304.422 139.833 301.288 143.7C298.222 147.5 295.188 150.967 292.188 154.1C295.322 155.233 298.522 156.2 301.788 157C305.055 157.8 308.322 158.2 311.588 158.2C317.322 158.2 322.922 157.5 328.388 156.1C333.922 154.7 339.055 152.8 343.788 150.4C348.522 147.933 352.688 145.1 356.288 141.9C359.888 138.7 362.688 135.333 364.688 131.8C366.755 128.2 367.788 124.6 367.788 121C367.788 116.533 366.022 112.267 362.488 108.2C358.955 104.067 353.122 100.467 344.988 97.4C341.588 96.1333 337.622 95.2333 333.088 94.7C328.622 94.1 324.022 93.8 319.288 93.8C315.755 93.8 312.222 93.9333 308.688 94.2C305.155 94.4667 301.822 94.8667 298.688 95.4C292.688 96.4 286.655 97.8667 280.588 99.8C274.522 101.733 268.855 104.133 263.588 107C258.388 109.867 253.988 113.2 250.388 117C246.788 120.8 244.488 125.067 243.488 129.8C243.222 130.667 243.088 131.633 243.088 132.7C243.088 134.567 243.488 136.267 244.288 137.8C245.155 139.333 246.222 140.6 247.488 141.6C248.822 142.533 250.155 143.1 251.488 143.3C252.288 143.367 252.688 143.567 252.688 143.9C252.688 144.167 252.422 144.4 251.888 144.6C251.422 144.8 250.922 144.867 250.388 144.8C248.722 144.533 247.022 143.767 245.288 142.5C243.555 141.167 242.088 139.5 240.888 137.5C239.755 135.433 239.188 133.167 239.188 130.7C239.188 129.7 239.288 128.7 239.488 127.7C240.355 123.633 242.155 119.933 244.888 116.6C247.622 113.2 251.022 110.167 255.088 107.5C259.155 104.833 263.688 102.5 268.688 100.5C273.688 98.5 278.855 96.8667 284.188 95.6C289.588 94.2667 294.922 93.3 300.188 92.7C304.788 92.1 309.688 91.8 314.888 91.8C320.088 91.8 325.288 92.1333 330.488 92.8C335.755 93.4 340.688 94.3333 345.288 95.6C355.555 98.4667 362.922 102.133 367.388 106.6C371.855 111.067 374.088 115.767 374.088 120.7C374.088 124.5 372.955 128.3 370.688 132.1C368.488 135.833 365.422 139.4 361.488 142.8C357.555 146.2 352.955 149.233 347.688 151.9C342.488 154.5 336.822 156.533 330.688 158C324.622 159.533 318.355 160.3 311.888 160.3C308.222 160.3 304.522 159.933 300.788 159.2C297.122 158.533 293.522 157.567 289.988 156.3C288.655 157.5 286.955 158.8 284.888 160.2C282.822 161.667 280.655 162.933 278.388 164C276.188 165.067 274.122 165.6 272.188 165.6ZM275.488 162C277.288 162 279.288 161.267 281.488 159.8C283.688 158.4 285.722 156.933 287.588 155.4C283.588 153.867 279.722 151.833 275.988 149.3C272.322 146.767 268.822 143.7 265.488 140.1C265.422 140.567 265.355 141.067 265.288 141.6C265.288 142.133 265.288 142.7 265.288 143.3C265.288 145.567 265.555 148.067 266.088 150.8C266.622 153.467 267.555 155.833 268.888 157.9C270.222 160.033 272.055 161.367 274.388 161.9C274.588 161.967 274.955 162 275.488 162ZM407.263 154.1C405.263 154.1 403.497 153.6 401.963 152.6C400.497 151.6 399.763 149.733 399.763 147C399.83 145.6 400.063 144.167 400.463 142.7C400.93 141.167 401.43 139.733 401.963 138.4C401.097 139.4 399.797 140.733 398.063 142.4C396.33 144.067 394.363 145.767 392.163 147.5C390.03 149.167 387.83 150.6 385.563 151.8C383.297 153 381.163 153.6 379.163 153.6C377.163 153.6 375.53 152.867 374.263 151.4C373.397 150.467 372.963 149.233 372.963 147.7C372.963 145.767 373.63 143.633 374.963 141.3C376.363 138.9 378.23 136.533 380.563 134.2C382.897 131.8 385.563 129.6 388.563 127.6C391.63 125.6 394.83 124.033 398.163 122.9C401.763 121.633 404.897 121 407.563 121C412.097 121 414.363 122.933 414.363 126.8C414.363 127.133 414.33 127.5 414.263 127.9C414.263 128.233 414.23 128.6 414.163 129C414.03 129.8 413.763 130.433 413.363 130.9C413.03 131.367 412.763 131.6 412.563 131.6C412.23 131.6 412.163 131.233 412.363 130.5C412.497 130.167 412.563 129.833 412.563 129.5C412.563 129.1 412.563 128.767 412.563 128.5C412.563 127.433 412.297 126.6 411.763 126C411.23 125.333 410.297 125 408.963 125C407.763 125 406.263 125.267 404.463 125.8C402.73 126.267 400.863 126.9 398.863 127.7C396.863 128.433 394.93 129.267 393.063 130.2C391.263 131.133 389.763 132.067 388.563 133C386.497 134.467 384.563 136.1 382.763 137.9C380.963 139.7 379.463 141.467 378.263 143.2C377.063 144.867 376.363 146.4 376.163 147.8C376.097 148 376.063 148.2 376.063 148.4C376.063 148.6 376.063 148.767 376.063 148.9C376.063 150.1 376.297 150.933 376.763 151.4C377.297 151.867 377.963 152.1 378.763 152.1C379.963 152.1 381.33 151.733 382.863 151C384.463 150.267 385.93 149.433 387.263 148.5C388.597 147.567 389.53 146.867 390.063 146.4C392.197 144.6 394.597 142.633 397.263 140.5C399.93 138.3 402.297 136.267 404.363 134.4C404.697 134.2 405.063 134.1 405.463 134.1C406.397 134.1 407.163 134.333 407.763 134.8C407.963 135 408.063 135.267 408.063 135.6C408.063 135.933 407.963 136.367 407.763 136.9C407.63 137.367 407.43 137.9 407.163 138.5C406.03 140.833 405.097 142.933 404.363 144.8C403.63 146.667 403.263 148.233 403.263 149.5C403.263 151.5 404.363 152.5 406.563 152.5C408.23 152.5 410.697 151.9 413.963 150.7C417.497 149.367 421.03 147.533 424.563 145.2C428.097 142.867 431.297 140.5 434.163 138.1C434.897 137.5 435.563 137 436.163 136.6C436.763 136.2 437.397 135.667 438.063 135C438.197 134.933 438.363 134.9 438.563 134.9C438.763 134.9 438.863 135 438.863 135.2C438.863 135.4 438.73 135.667 438.463 136C438.063 136.533 437.097 137.533 435.563 139C434.03 140.4 432.13 142 429.863 143.8C427.597 145.533 425.13 147.233 422.463 148.9C419.863 150.5 417.23 151.767 414.563 152.7C413.563 153.033 412.397 153.333 411.063 153.6C409.797 153.933 408.53 154.1 407.263 154.1ZM403.827 202.5C401.827 202.5 399.961 202.167 398.227 201.5C396.427 200.9 394.961 199.967 393.827 198.7C392.694 197.5 392.127 196.067 392.127 194.4C392.127 191.267 392.961 188.367 394.627 185.7C396.294 183.1 398.461 180.7 401.127 178.5C403.794 176.3 406.727 174.333 409.927 172.6C413.061 170.867 416.161 169.3 419.227 167.9C422.294 166.5 424.994 165.267 427.327 164.2C428.861 163.467 430.794 162.667 433.127 161.8C435.527 160.933 438.094 160.033 440.827 159.1C443.561 158.167 446.261 157.267 448.927 156.4C451.594 155.6 453.994 154.9 456.127 154.3C457.194 152.367 458.127 150.067 458.927 147.4C459.727 144.667 460.127 142.267 460.127 140.2C460.127 139.267 460.027 138.467 459.827 137.8C459.627 137.067 459.294 136.567 458.827 136.3L458.227 136.9C457.227 137.833 455.861 139.2 454.127 141C452.394 142.8 450.461 144.667 448.327 146.6C446.261 148.467 444.127 150.067 441.927 151.4C439.794 152.667 437.827 153.3 436.027 153.3C434.294 153.3 432.861 152.533 431.727 151C431.061 150.067 430.727 148.967 430.727 147.7C430.727 145.567 431.494 143.267 433.027 140.8C434.627 138.333 436.561 135.967 438.827 133.7C438.961 133.5 439.327 133.067 439.927 132.4C440.527 131.733 441.127 131.067 441.727 130.4C442.394 129.733 442.861 129.3 443.127 129.1C442.861 128.9 442.994 128.4 443.527 127.6C444.061 126.8 444.761 126.067 445.627 125.4C446.561 124.733 447.361 124.6 448.027 125C448.627 125.333 449.127 125.7 449.527 126.1C449.994 126.433 450.227 126.8 450.227 127.2C450.227 127.6 449.927 128.1 449.327 128.7L447.227 130.7C445.961 131.967 444.527 133.4 442.927 135C441.394 136.6 439.927 138.233 438.527 139.9C437.127 141.5 435.961 143.033 435.027 144.5C434.094 145.9 433.561 147.067 433.427 148C433.361 148.267 433.327 148.5 433.327 148.7C433.327 148.9 433.327 149.1 433.327 149.3C433.327 151.233 434.061 152.2 435.527 152.2C436.594 152.2 437.827 151.8 439.227 151C440.694 150.133 442.061 149.2 443.327 148.2C444.661 147.2 445.594 146.467 446.127 146C448.127 144.267 450.061 142.467 451.927 140.6C453.861 138.733 455.761 136.967 457.627 135.3C457.561 134.9 457.694 134.5 458.027 134.1C458.427 133.633 459.161 133.333 460.227 133.2C461.694 133.067 462.827 133.567 463.627 134.7C464.427 135.767 464.827 137.367 464.827 139.5C464.827 141.167 464.561 143.067 464.027 145.2C463.494 147.333 462.627 149.667 461.427 152.2C466.361 150.067 470.961 147.8 475.227 145.4C479.494 143 483.527 140.067 487.327 136.6C487.861 136.133 488.527 135.5 489.327 134.7C490.127 133.833 490.861 133.1 491.527 132.5C492.261 131.833 492.727 131.533 492.927 131.6C493.261 131.667 493.194 132.1 492.727 132.9C492.261 133.633 491.061 135 489.127 137C485.461 140.733 481.327 143.967 476.727 146.7C472.127 149.367 466.627 152 460.227 154.6C456.894 161.133 452.994 167.267 448.527 173C444.127 178.8 439.394 183.9 434.327 188.3C429.261 192.767 424.127 196.233 418.927 198.7C413.727 201.233 408.694 202.5 403.827 202.5ZM402.027 200.3C404.894 200.3 408.261 199.6 412.127 198.2C415.927 196.8 419.794 194.867 423.727 192.4C427.727 189.933 431.361 187.067 434.627 183.8C436.161 182.267 437.961 180.267 440.027 177.8C442.094 175.4 444.161 172.833 446.227 170.1C448.294 167.367 450.127 164.8 451.727 162.4C453.394 160 454.561 158.1 455.227 156.7C450.361 157.833 445.194 159.4 439.727 161.4C434.327 163.4 428.994 165.667 423.727 168.2C418.527 170.8 413.794 173.533 409.527 176.4C405.194 179.333 401.694 182.267 399.027 185.2C396.361 188.2 394.894 191.067 394.627 193.8C394.494 196.067 395.127 197.7 396.527 198.7C397.861 199.767 399.694 200.3 402.027 200.3Z" fill="black"/>
<path d="M392.725 75.4272L392.584 75.6632L386.552 72.0527L386.693 71.8167L392.725 75.4272Z" fill="black"/>
<path d="M394.373 61.4531L392.767 63.4663L398.075 67.7001L397.904 67.9151L392.595 63.6812L390.98 65.7061L390.793 65.5564L394.185 61.3035L394.373 61.4531Z" fill="black"/>
<path d="M398.83 55.7229C399.034 55.7862 399.225 55.8847 399.404 56.0183C399.58 56.1494 399.734 56.3025 399.864 56.4774C399.995 56.6477 400.099 56.8338 400.177 57.0359C400.253 57.2356 400.291 57.4368 400.292 57.6396L400.21 57.6555C400.17 57.657 400.15 57.6365 400.151 57.5941C400.125 57.4025 400.07 57.2222 399.986 57.053C399.9 56.8813 399.796 56.727 399.674 56.59C399.555 56.4506 399.422 56.3334 399.275 56.2383C399.127 56.1407 398.978 56.0679 398.831 56.0199C398.8 56.0122 398.777 55.9999 398.761 55.9831C398.747 55.9639 398.745 55.9403 398.755 55.9122L398.83 55.7229Z" fill="black"/>
<path d="M408.893 48.9665C408.897 49.0052 408.884 49.0354 408.854 49.057C408.825 49.0786 408.764 49.0834 408.673 49.0715C408.583 49.0549 408.467 49.0487 408.325 49.0527C408.184 49.0568 408.02 49.0872 407.835 49.144C407.647 49.198 407.445 49.3046 407.226 49.4636C407.006 49.6246 406.833 49.8015 406.71 49.9945C406.587 50.1829 406.509 50.3758 406.476 50.5734C406.443 50.7709 406.45 50.9654 406.499 51.1567C406.546 51.3454 406.628 51.5205 406.746 51.6822C406.897 51.8896 407.065 52.033 407.251 52.1122C407.435 52.1887 407.629 52.2241 407.836 52.2183C408.042 52.2124 408.254 52.179 408.474 52.118C408.696 52.0551 408.921 51.9879 409.15 51.9163C409.376 51.8421 409.601 51.7772 409.825 51.7216C410.049 51.6614 410.268 51.6337 410.482 51.6387C410.696 51.6436 410.901 51.6938 411.099 51.7892C411.294 51.8819 411.475 52.0428 411.642 52.2717C411.813 52.5061 411.933 52.7565 412.004 53.0228C412.075 53.2845 412.09 53.548 412.048 53.8135C412.007 54.0743 411.908 54.3296 411.752 54.5795C411.597 54.8247 411.379 55.0494 411.099 55.2535C410.908 55.3929 410.721 55.502 410.539 55.5809C410.362 55.6604 410.185 55.7173 410.008 55.7515C409.832 55.7811 409.655 55.7903 409.478 55.7792C409.303 55.7662 409.124 55.738 408.94 55.6948L408.933 55.5757C408.937 55.5524 408.941 55.5351 408.945 55.5239C408.95 55.5079 408.962 55.4931 408.981 55.4794C409 55.4656 409.038 55.4645 409.096 55.4759C409.154 55.4827 409.229 55.4921 409.32 55.504C409.41 55.5133 409.513 55.52 409.632 55.5243C409.749 55.5259 409.877 55.515 410.017 55.4916C410.157 55.4636 410.307 55.418 410.468 55.3548C410.628 55.2871 410.795 55.1903 410.968 55.0647C411.213 54.8861 411.405 54.6884 411.544 54.4716C411.681 54.2521 411.767 54.0283 411.803 53.8001C411.84 53.5673 411.828 53.3364 411.769 53.1076C411.709 52.8787 411.606 52.6633 411.459 52.4612C411.301 52.2457 411.13 52.0983 410.945 52.0191C410.759 51.9399 410.563 51.9032 410.357 51.909C410.154 51.9129 409.942 51.9476 409.722 52.0132C409.499 52.0762 409.276 52.1461 409.052 52.223C408.828 52.2953 408.604 52.3615 408.38 52.4218C408.154 52.4793 407.934 52.5056 407.72 52.5007C407.506 52.4911 407.301 52.4386 407.104 52.3432C406.904 52.2451 406.718 52.0775 406.546 51.8404C406.41 51.6546 406.316 51.4512 406.262 51.2305C406.208 51.0097 406.2 50.7866 406.238 50.5611C406.277 50.3309 406.364 50.1061 406.502 49.8866C406.641 49.6652 406.838 49.4622 407.091 49.2777C407.377 49.0696 407.662 48.9319 407.947 48.8645C408.234 48.7951 408.545 48.7877 408.877 48.8423L408.893 48.9665Z" fill="black"/>
<path d="M423.819 40.3096L424.959 43.321L428.115 42.1261L428.198 42.3459L425.042 43.5408L426.225 46.6645L425.967 46.7618L423.478 40.1872L427.36 38.7179L427.443 38.9376L423.819 40.3096Z" fill="black"/>
<path d="M436.501 43.4221L436.233 43.4843L434.644 36.6362L434.912 36.574L436.501 43.4221Z" fill="black"/>
<path d="M448.567 34.6257L449.128 41.6332L449.014 41.6424C448.97 41.6459 448.932 41.6289 448.899 41.5914L443.569 35.4777C443.574 35.5074 443.579 35.5388 443.581 35.572C443.587 35.6017 443.591 35.6298 443.593 35.6563L444.104 42.0359L443.865 42.0551L443.304 35.0475L443.428 35.0376C443.455 35.0354 443.477 35.0387 443.494 35.0473C443.511 35.0526 443.531 35.0678 443.553 35.0928L448.862 41.1831C448.856 41.1535 448.85 41.1238 448.844 41.0942C448.842 41.0643 448.84 41.036 448.838 41.0095L448.327 34.6449L448.567 34.6257Z" fill="black"/>
<path d="M460.613 39.5531L459.387 35.5016C459.359 35.4085 459.334 35.3056 459.311 35.1929C459.271 35.2995 459.226 35.3957 459.178 35.4814L457.199 39.2236L460.613 39.5531ZM461.695 42.1893L461.481 42.1686C461.431 42.1638 461.398 42.1321 461.38 42.0734L460.683 39.7708L457.089 39.424L455.965 41.5508C455.943 41.6056 455.902 41.6301 455.842 41.6244L455.638 41.6047L459.21 34.8868L459.474 34.9122L461.695 42.1893Z" fill="black"/>
<path d="M471.869 44.1506L471.808 44.3826L468.173 43.4221L469.969 36.6253L470.234 36.6956L468.5 43.2603L471.869 44.1506Z" fill="black"/>
<path d="M481.95 47.9769L481.853 48.1967L478.41 46.6863L481.234 40.2485L481.486 40.3589L478.758 46.577L481.95 47.9769Z" fill="black"/>
<path d="M491.233 50.0383L489.643 52.5286L489.407 52.3779L490.997 49.8876L490.991 45.0484L491.189 45.1749C491.215 45.191 491.231 45.2092 491.238 45.2294C491.246 45.2468 491.251 45.2712 491.25 45.3027L491.247 49.4416C491.244 49.5073 491.241 49.5707 491.238 49.6318C491.234 49.6929 491.227 49.7513 491.215 49.807C491.265 49.7718 491.315 49.7403 491.364 49.7125C491.418 49.6837 491.475 49.6544 491.533 49.6246L495.287 47.8812C495.336 47.8534 495.382 47.8529 495.424 47.8799L495.627 48.009L491.233 50.0383Z" fill="black"/>
<path d="M511.256 62.3604L505.973 66.9983L505.788 66.7879L508.385 64.5085L505.268 60.9577L502.671 63.237L502.49 63.0304L507.773 58.3925L507.954 58.5991L505.433 60.8125L508.55 64.3634L511.071 62.15L511.256 62.3604Z" fill="black"/>
<path d="M514.504 74.9641L517.02 71.5596C517.078 71.4816 517.145 71.3999 517.222 71.3144C517.112 71.3457 517.009 71.3675 516.911 71.3799L512.728 72.0297L514.504 74.9641ZM513.037 77.4067L512.926 77.2228C512.9 77.18 512.905 77.134 512.941 77.0847L514.371 75.1498L512.502 72.0614L510.125 72.4307C510.067 72.4458 510.023 72.4276 509.992 72.3763L509.886 72.2009L517.407 71.0504L517.544 71.2771L513.037 77.4067Z" fill="black"/>
<path d="M519.482 83.7158C519.606 84.022 519.759 84.2799 519.944 84.4894C520.13 84.702 520.333 84.8629 520.553 84.9721C520.774 85.0844 521.007 85.1453 521.252 85.1548C521.496 85.1643 521.738 85.1212 521.976 85.0255C522.526 84.8042 522.879 84.4703 523.033 84.0238C523.188 83.5772 523.132 83.0215 522.865 82.3565L522.341 81.0529L518.959 82.4122L519.482 83.7158ZM523.069 82.2745C523.365 83.0106 523.431 83.6322 523.269 84.1394C523.107 84.6498 522.711 85.0317 522.08 85.2853C521.805 85.3959 521.528 85.4444 521.249 85.4306C520.975 85.4187 520.713 85.3479 520.464 85.2183C520.217 85.0875 519.99 84.9022 519.782 84.6624C519.579 84.4244 519.409 84.1369 519.274 83.7997L518.75 82.4961L516.022 83.5925L515.919 83.3373L522.442 80.7157L523.069 82.2745Z" fill="black"/>
<path d="M522.882 94.4206C522.956 94.7421 523.068 95.0206 523.218 95.2562C523.369 95.495 523.545 95.6853 523.745 95.8272C523.947 95.9723 524.167 96.0684 524.407 96.1156C524.647 96.1627 524.893 96.1574 525.143 96.0996C525.721 95.966 526.121 95.6905 526.342 95.2732C526.564 94.8559 526.594 94.2981 526.433 93.5999L526.117 92.231L522.565 93.0517L522.882 94.4206ZM526.647 93.5503C526.826 94.3233 526.796 94.9478 526.557 95.4238C526.319 95.9031 525.868 96.2193 525.206 96.3724C524.917 96.4392 524.636 96.4443 524.362 96.3876C524.093 96.3335 523.846 96.2232 523.619 96.0566C523.395 95.8893 523.2 95.6711 523.031 95.402C522.867 95.1355 522.744 94.8252 522.662 94.4712L522.346 93.1023L519.481 93.7643L519.42 93.4964L526.269 91.9135L526.647 93.5503Z" fill="black"/>
<path d="M521.843 108.206L521.608 108.213L521.309 104.074L528.321 103.568L528.619 107.707L528.385 107.724L528.106 103.859L524.999 104.083L525.234 107.34L525.005 107.356L524.77 104.1L521.563 104.331L521.843 108.206Z" fill="black"/>
<path d="M528.063 120.734L521.066 120.052L521.077 119.938C521.081 119.895 521.105 119.86 521.147 119.834L528.104 115.664C528.074 115.664 528.042 115.663 528.009 115.66C527.979 115.66 527.951 115.659 527.924 115.657L521.554 115.036L521.578 114.797L528.575 115.479L528.562 115.603C528.56 115.63 528.553 115.651 528.541 115.666C528.533 115.682 528.515 115.699 528.486 115.716L521.556 119.869C521.586 119.869 521.616 119.868 521.646 119.868C521.676 119.871 521.704 119.873 521.731 119.876L528.086 120.495L528.063 120.734Z" fill="black"/>
<path d="M519.579 127.666L519.646 127.399L526.465 129.105L526.399 129.372L519.579 127.666Z" fill="black"/>
<path d="M521.912 142.414L515.418 139.721L515.462 139.615C515.479 139.575 515.511 139.549 515.56 139.536L523.43 137.577C523.401 137.569 523.372 137.558 523.341 137.545C523.312 137.537 523.285 137.527 523.26 137.517L517.349 135.066L517.44 134.844L523.934 137.537L523.886 137.652C523.876 137.677 523.863 137.695 523.848 137.707C523.835 137.719 523.813 137.73 523.78 137.738L515.94 139.689C515.969 139.697 515.998 139.706 516.027 139.714C516.055 139.726 516.081 139.736 516.106 139.747L522.004 142.192L521.912 142.414Z" fill="black"/>
<path d="M511.553 152.667L509.541 151.359C509.531 150.94 509.577 150.524 509.677 150.112C509.781 149.702 509.97 149.287 510.244 148.864C510.544 148.403 510.883 148.034 511.263 147.756C511.645 147.479 512.051 147.296 512.48 147.205C512.909 147.118 513.355 147.128 513.815 147.232C514.276 147.337 514.737 147.539 515.198 147.839C515.659 148.138 516.031 148.475 516.313 148.849C516.595 149.228 516.785 149.63 516.883 150.055C516.98 150.48 516.982 150.918 516.887 151.369C516.795 151.823 516.603 152.274 516.311 152.724C516.167 152.945 516.021 153.138 515.873 153.305C515.724 153.474 515.568 153.619 515.406 153.74C515.246 153.863 515.078 153.966 514.9 154.05C514.721 154.136 514.531 154.208 514.331 154.264L514.282 154.148C514.263 154.104 514.272 154.065 514.311 154.03C514.337 154.008 514.407 153.98 514.52 153.946C514.632 153.915 514.77 153.852 514.936 153.757C515.104 153.663 515.291 153.525 515.498 153.341C515.703 153.16 515.909 152.91 516.116 152.592C516.383 152.181 516.561 151.768 516.648 151.351C516.734 150.938 516.732 150.535 516.641 150.142C516.549 149.752 516.369 149.381 516.101 149.028C515.836 148.677 515.484 148.359 515.046 148.074C514.61 147.79 514.176 147.598 513.745 147.496C513.314 147.395 512.899 147.382 512.5 147.457C512.103 147.536 511.729 147.703 511.377 147.955C511.027 148.213 510.713 148.555 510.435 148.983C510.31 149.176 510.206 149.363 510.124 149.544C510.04 149.728 509.974 149.91 509.925 150.089C509.877 150.268 509.84 150.449 509.817 150.632C509.796 150.817 509.782 151.009 509.776 151.208L511.507 152.334L512.317 151.088C512.329 151.069 512.347 151.057 512.37 151.052C512.393 151.047 512.413 151.05 512.43 151.061L512.548 151.137L511.553 152.667Z" fill="black"/>
<path d="M509.562 161.462L507.42 159.567C507.31 159.469 507.208 159.376 507.113 159.288C507.015 159.202 506.917 159.112 506.816 159.019C506.716 158.926 506.611 158.826 506.501 158.72C506.39 158.613 506.265 158.493 506.124 158.36L506.244 158.225C506.393 158.348 506.527 158.458 506.646 158.555C506.766 158.651 506.878 158.744 506.982 158.832C507.087 158.92 507.189 159.006 507.288 159.089C507.386 159.175 507.489 159.267 507.599 159.364L509.741 161.26L509.562 161.462ZM504.869 156.602C504.949 156.673 504.993 156.758 505.002 156.859C505.011 156.965 504.98 157.058 504.909 157.138C504.838 157.218 504.75 157.26 504.644 157.264C504.538 157.273 504.446 157.242 504.366 157.171C504.286 157.1 504.244 157.012 504.24 156.906C504.236 156.805 504.269 156.714 504.34 156.634C504.411 156.554 504.496 156.51 504.597 156.502C504.699 156.498 504.789 156.531 504.869 156.602Z" fill="black"/>
</svg>
